# xmcd
#
# Track frame offsets: 
#        150
#        25190
#        46167
#        61075
#        74587
#        89347
#        107677
#        124900
#        145550
#        166492
#        199642
#        211955
#        232135
#        250515
#
# Disc length: 3582 seconds
#
# Revision: 11
# Processed by: cddbd v1.5.2PL0 Copyright (c) Steve Scherf et al.
# Submitted via: ExactAudioCopyFreeDBPlugin 1.0
#
DISCID=bf0dfc0e
DTITLE=Boz Scaggs - Come on Home
DYEAR=1997
DGENRE=Rock
TTITLE0=It All Went Down The Drain
TTITLE1=Ask Me 'Bout Nothin' (But The Blues)
TTITLE2=Don't Cry No More
TTITLE3=Found Love
TTITLE4=Come On Home
TTITLE5=Picture Of A Broken Heart
TTITLE6=Love Letters
TTITLE7=I've Got Your Love
TTITLE8=Early In The Morning
TTITLE9=Your Good Thing (Is About To End)
TTITLE10=T-Bone Shuffle
TTITLE11=Sick And Tired
TTITLE12=After Hours
TTITLE13=Goodnight Louise
EXTD=YEAR: 1997
EXTT0=
EXTT1=
EXTT2=
EXTT3=
EXTT4=
EXTT5=
EXTT6=
EXTT7=
EXTT8=
EXTT9=
EXTT10=
EXTT11=
EXTT12=
EXTT13=
PLAYORDER=
